<svg width="128" height="128" viewBox="0 0 128 128" fill="none" xmlns="http://www.w3.org/2000/svg">
<path d="M70.84 103H113.02C114.366 103 115.654 102.521 116.82 101.845C117.986 101.169 119.187 100.321 119.86 99.1498C120.533 97.9793 121.001 96.651 121 95.2996C120.999 93.948 120.534 92.6203 119.86 91.4503L91.36 41.7851C90.6873 40.6145 89.8654 39.7657 88.7001 39.0899C87.5345 38.4143 85.8657 37.9349 84.52 37.9349C83.1743 37.9349 81.8854 38.4143 80.7201 39.0899C79.5545 39.7657 78.7326 40.6145 78.0599 41.7851L70.84 54.4901L56.3999 29.8491C55.7267 28.6788 54.9058 27.4457 53.74 26.7701C52.5742 26.0943 51.286 26 49.9401 26C48.5941 26 47.3057 26.0943 46.1399 26.7701C44.9744 27.4457 43.7733 28.6788 43.1001 29.8491L7.76001 91.4503C7.08626 92.6203 7.00059 93.948 7 95.2996C6.99941 96.651 7.08728 97.979 7.76001 99.1498C8.43275 100.32 9.63434 101.169 10.8 101.845C11.9657 102.521 13.254 103 14.6 103H41.2C51.7399 103 59.4115 98.2098 64.7601 89.14L77.68 66.425L84.52 54.4901L105.42 90.6799H77.68L70.84 103ZM40.8201 90.6799H22.1999L49.9401 42.17L64 66.425L54.6867 82.8739C51.1349 88.7587 47.0853 90.6799 40.8201 90.6799Z" fill="#00DC82"/>
</svg>
