<svg width="401" height="595" viewBox="0 0 401 595" fill="none" xmlns="http://www.w3.org/2000/svg">
<path d="M277.639 373.056C338.387 373.056 325.831 446.364 326.413 527.887H277.639V373.056Z" fill="#FDD2B2"/>
<path d="M292.86 419.997L277.639 444.465L285.256 527.886H306.514C307.029 412.206 292.86 419.997 292.86 419.997Z" fill="#F3AB98"/>
<path d="M25.4716 207.034C25.4716 112.498 105.409 35.8592 204.014 35.8592C302.619 35.8592 382.556 112.498 382.556 207.034C382.581 232.506 376.665 257.661 365.241 280.658C353.816 303.654 337.172 323.911 316.527 339.944C312.864 342.802 309.084 345.516 305.189 348.087C264.922 372.594 214.054 372.594 168.131 368.673C163.674 368.031 159.229 367.223 154.818 366.292C137.195 362.57 120.134 356.827 104.372 348.453C100.476 346.151 96.6988 343.666 93.0399 340.996C89.3622 338.312 85.8323 335.446 82.4645 332.41C79.2785 329.574 76.2019 326.626 73.2345 323.568C42.4839 291.931 25.4121 250.278 25.4716 207.034V207.034Z" fill="#FDD2B2"/>
<path d="M49.8083 293.331C50.2768 294.101 50.7386 294.871 51.2205 295.628C51.5083 296.09 51.8095 296.539 52.1107 297.001C52.5525 297.688 52.9942 298.374 53.4494 299.048C53.7707 299.536 54.1187 300.011 54.4266 300.486C54.8684 301.127 55.3101 301.769 55.7653 302.411C56.1066 302.898 56.4346 303.386 56.8094 303.874C57.2512 304.515 57.6929 305.106 58.148 305.722C58.5095 306.216 58.8843 306.704 59.2524 307.198C59.6206 307.692 60.1493 308.385 60.5911 308.975C61.0328 309.566 61.3608 309.957 61.749 310.445C62.1372 310.933 62.666 311.6 63.1345 312.177C63.603 312.755 63.931 313.146 64.3326 313.628C64.7342 314.109 65.2763 314.757 65.7516 315.315C66.2268 315.874 66.5748 316.272 66.9898 316.746C67.4048 317.221 67.9537 317.85 68.4423 318.396C68.9309 318.941 69.2923 319.339 69.7206 319.807L71.2065 321.412C71.6416 321.88 72.0834 322.336 72.5452 322.798C73.1208 323.401 73.7031 323.998 74.2854 324.588L75.0953 325.409C75.9588 326.269 76.8289 327.129 77.7124 327.976L77.8864 328.149C78.7498 328.971 79.6267 329.786 80.5035 330.594L81.561 331.557C82.1969 332.128 82.8327 332.699 83.4753 333.264L84.2517 333.944C84.921 334.547 85.6506 335.138 86.3534 335.728C88.5398 337.555 90.7709 339.307 93.0466 340.984C96.7011 343.653 100.478 346.139 104.378 348.44C120.141 356.782 137.175 362.558 154.825 366.28C159.236 367.21 163.68 368.012 168.138 368.66C196.317 371.067 226.369 371.984 254.668 366.684C209.67 353.985 -6.42836 279.38 129.585 51.4078C127.764 52.2099 125.971 53.0377 124.19 53.8976L123.795 54.0837C122.979 54.4751 122.162 54.8794 121.352 55.2901L120.683 55.6302C118.166 56.9136 115.676 58.2419 113.233 59.628L112.631 59.9681C111.855 60.4109 111.085 60.8601 110.315 61.3157L109.733 61.6622C107.341 63.0954 104.987 64.5777 102.671 66.1092L101.949 66.5905C101.219 67.0782 100.503 67.5659 99.7867 68.06L99.3449 68.3616C97.8858 69.3841 96.4445 70.4193 95.0211 71.4675L94.6061 71.7755C93.9368 72.276 93.2675 72.7894 92.5982 73.3092L91.815 73.9124C91.1457 74.4321 90.4764 74.9519 89.8071 75.4845C88.3948 76.6075 87.0026 77.7626 85.6305 78.9305L84.8675 79.5722L83.067 81.1444L82.1969 81.9016C80.2871 83.6128 78.4196 85.3604 76.5946 87.1443L75.6709 88.0491C75.1422 88.5753 74.6134 89.1015 74.0914 89.6341C73.7835 89.9486 73.4756 90.2758 73.1744 90.5839C72.2552 91.525 71.3493 92.479 70.4569 93.4459C70.1557 93.7731 69.8478 94.0876 69.5466 94.4341C69.0714 94.9539 68.6029 95.4801 68.1344 96.0063L67.1237 97.1549C66.6685 97.6747 66.2134 98.1945 65.785 98.7207C65.4236 99.1442 65.0622 99.5741 64.7074 100.004C63.9912 100.858 63.2884 101.711 62.5923 102.571C62.2309 103.02 61.8695 103.469 61.5147 103.925C61.16 104.381 60.7116 104.945 60.3167 105.465C59.9218 105.985 59.6005 106.395 59.2524 106.864C58.9044 107.332 58.4961 107.859 58.128 108.359C57.4943 109.215 56.8696 110.081 56.2538 110.958C55.9192 111.426 55.5845 111.908 55.2566 112.383C54.9286 112.857 54.5203 113.448 54.1589 113.987L53.1616 115.469L52.0371 117.208C51.7493 117.651 51.4615 118.094 51.1804 118.537C50.5847 119.473 50.0091 120.417 49.4334 121.36L48.6169 122.746C48.2554 123.356 47.894 123.972 47.5393 124.588C47.2715 125.056 47.0038 125.525 46.7428 125.993C46.3144 126.757 45.8927 127.527 45.471 128.297L44.6678 129.798C44.2395 130.62 43.8111 131.435 43.3894 132.263C43.1686 132.705 42.941 133.155 42.7201 133.604C42.3721 134.303 42.0508 135.009 41.696 135.715C41.4886 136.138 41.2878 136.562 41.087 136.998C40.5917 138.055 40.1075 139.125 39.6345 140.207C39.4873 140.541 39.3467 140.881 39.1995 141.214C38.8447 142.029 38.4967 142.844 38.1553 143.666C37.9746 144.096 37.8006 144.526 37.6266 144.949C37.2919 145.758 36.9572 146.573 36.656 147.388C36.5155 147.741 36.3749 148.093 36.2411 148.446C35.8216 149.572 35.4089 150.697 35.0028 151.822L34.628 152.913C34.3335 153.768 34.0457 154.624 33.7646 155.479L33.363 156.705C33.0484 157.693 32.7405 158.682 32.446 159.676C32.3791 159.888 32.3121 160.1 32.2519 160.318C31.9038 161.499 31.5692 162.684 31.2479 163.873C31.1408 164.252 31.0471 164.637 30.9467 165.015C30.7124 165.907 30.4849 166.799 30.2774 167.698L29.9963 168.821C29.7085 170.04 29.4273 171.259 29.1663 172.485L29.0659 172.979C28.8383 174.07 28.6152 175.161 28.3966 176.251C28.323 176.643 28.256 177.028 28.1824 177.419C28.0084 178.376 27.841 179.345 27.6871 180.307C27.6336 180.634 27.5733 180.949 27.5265 181.282C27.3257 182.534 27.145 183.792 26.9709 185.056L26.8705 185.89C26.7367 186.91 26.6162 187.937 26.5024 188.964C26.4622 189.349 26.4154 189.734 26.3752 190.125C26.2681 191.203 26.1677 192.288 26.074 193.372C26.074 193.597 26.0339 193.815 26.0205 194.014C25.9223 195.297 25.8353 196.591 25.7594 197.896C25.7594 198.236 25.7594 198.583 25.7126 198.923C25.668 199.933 25.6278 200.94 25.5921 201.945C25.5921 202.324 25.5921 202.703 25.5921 203.081C25.5921 204.397 25.5386 205.719 25.5386 207.04C25.5386 207.04 25.5386 207.085 25.5386 207.105C25.5386 208.529 25.5386 209.941 25.5921 211.353C25.5921 211.84 25.6323 212.328 25.6457 212.816C25.6791 213.759 25.7126 214.702 25.7594 215.646C25.7594 216.217 25.8331 216.782 25.8665 217.353C25.9201 218.206 25.9669 219.06 26.0339 219.92C26.0807 220.561 26.141 221.132 26.1945 221.736C26.2681 222.544 26.3351 223.353 26.4221 224.155C26.4823 224.796 26.5626 225.4 26.6296 226.022C26.7233 226.799 26.8103 227.581 26.9107 228.358C26.991 229 27.0847 229.641 27.1717 230.251C27.2788 231.008 27.3859 231.772 27.5064 232.529C27.6068 233.171 27.7139 233.812 27.821 234.454C27.9414 235.198 28.0686 235.949 28.2025 236.694C28.323 237.335 28.4434 237.977 28.5706 238.619C28.7112 239.357 28.8584 240.095 29.0057 240.826C29.1529 241.558 29.2801 242.11 29.4206 242.751C29.5813 243.483 29.7419 244.208 29.9159 244.933C30.09 245.658 30.2105 246.217 30.3711 246.813C30.5451 247.538 30.7325 248.257 30.9199 248.969C31.1073 249.682 31.2479 250.221 31.4152 250.837C31.616 251.556 31.8168 252.268 32.0243 252.98C32.1983 253.622 32.3791 254.212 32.5665 254.822C32.7807 255.534 33.0015 256.24 33.2358 256.946C33.4701 257.652 33.624 258.159 33.8248 258.768C34.0256 259.378 34.2933 260.174 34.5343 260.873C34.7752 261.573 34.9493 262.073 35.1634 262.67C35.4178 263.369 35.6721 264.069 35.9332 264.768C36.1541 265.352 36.3682 265.943 36.6025 266.527L37.4325 268.625C37.6667 269.196 37.8943 269.774 38.1018 270.345C38.3963 271.044 38.6975 271.75 38.9987 272.449C39.2396 273.001 39.4739 273.56 39.7215 274.112C40.0361 274.83 40.3909 275.536 40.6921 276.248C40.9397 276.775 41.1807 277.307 41.4283 277.833C41.7764 278.578 42.1445 279.309 42.4992 280.041L43.2221 281.517C43.6304 282.325 44.0521 283.121 44.4738 283.923C44.6879 284.327 44.8887 284.738 45.1096 285.142C46.3947 287.542 47.7334 289.91 49.1256 292.246C49.3197 292.548 49.5673 292.939 49.8083 293.331Z" fill="#F3AB98"/>
<path d="M25.4716 207.034C25.4716 112.498 105.409 35.8592 204.014 35.8592C302.619 35.8592 382.556 112.498 382.556 207.034C382.581 232.506 376.665 257.661 365.241 280.658C353.816 303.654 337.172 323.911 316.527 339.944C312.864 342.802 309.084 345.516 305.189 348.087C264.922 372.594 214.054 372.594 168.131 368.673C163.674 368.031 159.229 367.223 154.818 366.292C137.195 362.57 120.134 356.827 104.372 348.453C100.476 346.151 96.6988 343.666 93.0399 340.996C89.3622 338.312 85.8323 335.446 82.4645 332.41C79.2785 329.574 76.2019 326.626 73.2345 323.568C42.4839 291.931 25.4121 250.278 25.4716 207.034V207.034Z" stroke="#592D3D" stroke-width="12" stroke-miterlimit="10"/>
<path d="M127.791 373.056C67.0367 373.056 79.5999 446.364 79.0176 527.887H127.791V373.056Z" fill="#FDD2B2"/>
<path d="M115.148 419.997L130.388 444.465L122.765 527.886H101.527C100.985 412.206 115.148 419.997 115.148 419.997Z" fill="#F3AB98"/>
<path d="M283.978 572.806H124.05C121.693 572.804 119.434 571.906 117.769 570.308C116.103 568.71 115.168 566.543 115.168 564.284V381.578C115.168 379.319 116.103 377.152 117.769 375.554C119.434 373.956 121.693 373.058 124.05 373.056H280.156C288.918 373.056 292.873 377.971 292.873 385.813V564.258C292.877 565.38 292.649 566.492 292.204 567.529C291.758 568.566 291.103 569.509 290.277 570.303C289.451 571.097 288.469 571.727 287.388 572.157C286.307 572.586 285.148 572.807 283.978 572.806V572.806Z" fill="#FDD2B2"/>
<path d="M290.39 378.125C289.723 377.339 289.159 376.477 288.71 375.559C287.103 374.351 285.191 373.574 283.168 373.306C282.172 373.158 281.165 373.085 280.156 373.088H124.05C121.699 373.09 119.445 373.984 117.781 375.575C116.116 377.166 115.177 379.324 115.168 381.578C134.578 388.264 170.916 391.999 204.014 391.999C246.221 391.999 273.878 385.999 290.39 378.125Z" fill="#F3AB98"/>
<path d="M277.639 373.056C338.387 373.056 325.831 446.364 326.413 527.887H292.86" stroke="#592D3D" stroke-width="12" stroke-miterlimit="10" stroke-linecap="square"/>
<path d="M127.791 373.056C67.0367 373.056 79.5999 446.364 79.0176 527.887H112.531" stroke="#592D3D" stroke-width="12" stroke-miterlimit="10" stroke-linecap="square"/>
<path d="M124.05 373.121L280.156 373.056" stroke="#592D3D" stroke-width="12" stroke-miterlimit="10"/>
<path d="M124.05 572.806H202.106C129.05 572.806 134.565 424.456 115.168 424.456V564.258C115.164 565.379 115.391 566.489 115.836 567.526C116.281 568.562 116.934 569.504 117.759 570.298C118.584 571.092 119.565 571.723 120.644 572.153C121.723 572.583 122.881 572.805 124.05 572.806V572.806Z" fill="#F3AB98"/>
<path d="M111.152 438.593C111.025 436.238 111.078 433.883 111.185 431.535C111.292 429.186 111.5 426.818 111.761 424.476C111.895 423.295 112.029 422.121 112.196 420.94C112.363 419.759 112.524 418.585 112.765 417.404C113.24 414.96 114.048 412.587 115.168 410.345C116.288 412.587 117.096 414.96 117.571 417.404C117.812 418.585 117.986 419.759 118.14 420.94C118.294 422.121 118.441 423.295 118.575 424.476C118.829 426.831 119.03 429.186 119.144 431.535C119.257 433.883 119.311 436.245 119.184 438.593H111.152Z" fill="#592D3D"/>
<path d="M292.86 444.465V449.599C293.034 471.417 293.034 493.876 292.86 515.534C292.86 517.375 292.86 519.204 292.86 521.008V564.265C292.863 565.385 292.635 566.495 292.19 567.53C291.745 568.566 291.091 569.508 290.266 570.301C289.441 571.094 288.461 571.724 287.382 572.154C286.303 572.583 285.146 572.805 283.978 572.806H124.05C121.693 572.804 119.434 571.906 117.769 570.308C116.103 568.71 115.168 566.543 115.168 564.284V526.937C115.168 525.326 115.168 523.683 115.168 522.028C115 499.652 115 477.192 115.168 454.456V438.593" stroke="#592D3D" stroke-width="12" stroke-miterlimit="10"/>
<path d="M288.844 444.465C288.717 441.789 288.777 439.107 288.884 436.424C288.991 433.742 289.199 431.066 289.453 428.384C289.587 427.043 289.727 425.701 289.888 424.36C290.049 423.019 290.216 421.684 290.457 420.343C290.923 417.581 291.73 414.882 292.86 412.303C293.99 414.882 294.796 417.581 295.263 420.343C295.504 421.684 295.678 423.025 295.832 424.36C295.986 425.695 296.133 427.043 296.267 428.384C296.521 431.066 296.729 433.742 296.836 436.424C296.943 439.107 297.003 441.789 296.876 444.465H288.844Z" fill="#592D3D"/>
<path d="M251.322 426.786C251.469 420.722 259.501 418.155 263.517 422.005C264.169 422.644 264.684 423.4 265.032 424.229C265.38 425.059 265.554 425.946 265.545 426.84C265.535 427.734 265.342 428.618 264.976 429.44C264.61 430.263 264.079 431.008 263.413 431.634C262.747 432.26 261.958 432.754 261.093 433.087C260.228 433.421 259.302 433.588 258.37 433.579C257.437 433.569 256.516 433.384 255.658 433.033C254.8 432.683 254.022 432.173 253.37 431.535C252.718 430.912 252.201 430.172 251.85 429.357C251.498 428.542 251.319 427.668 251.322 426.786V426.786Z" fill="#592D3D"/>
<path d="M142.509 426.593C142.369 421.363 148.393 418.797 152.409 420.722C157.763 422.647 157.763 429.706 152.409 432.914C149.732 434.197 147.054 432.914 144.544 431.323C143.897 430.702 143.384 429.964 143.035 429.153C142.686 428.341 142.507 427.471 142.509 426.593V426.593Z" fill="#592D3D"/>
<path d="M204.014 419.932C204.493 421.142 204.829 422.399 205.018 423.68C205.217 424.92 205.327 426.173 205.346 427.428L205.547 434.929C205.607 437.425 205.687 439.928 205.714 442.431L205.828 449.919C205.982 459.911 205.975 469.915 206.015 479.913C206.055 489.91 206.135 499.908 206.015 509.906C205.955 514.905 205.814 519.904 205.66 524.903C205.593 527.399 205.466 529.901 205.212 532.398C204.984 534.92 204.588 537.425 204.027 539.899C203.466 537.425 203.07 534.92 202.842 532.398C202.588 529.901 202.461 527.399 202.394 524.903C202.24 519.904 202.099 514.905 202.039 509.906C201.905 499.908 202.039 489.91 202.039 479.913C202.039 469.915 202.039 459.924 202.16 449.926L202.273 442.418L202.494 434.923L202.715 427.428C202.74 426.173 202.852 424.921 203.05 423.68C203.225 422.4 203.549 421.144 204.014 419.932V419.932Z" fill="#F3AB98"/>
<path d="M153.962 452.807C154.954 452.355 156.006 452.031 157.087 451.845C158.121 451.658 159.169 451.551 160.22 451.524L166.478 451.312L178.994 451.049C187.334 450.927 195.667 450.895 204.014 450.876C212.36 450.856 220.7 450.773 229.04 450.876C233.21 450.933 237.38 451.068 241.556 451.216C243.638 451.286 245.726 451.408 247.808 451.646C249.921 451.87 252.014 452.252 254.066 452.788C252.015 453.327 249.922 453.707 247.808 453.924C245.726 454.167 243.638 454.289 241.556 454.354C237.38 454.501 233.21 454.63 229.04 454.687C220.7 454.809 212.36 454.687 204.014 454.687C195.667 454.687 187.327 454.687 178.981 454.591C174.811 454.553 170.641 454.424 166.478 454.27L160.22 454.052C159.171 454.025 158.125 453.918 157.094 453.731C156.012 453.558 154.958 453.247 153.962 452.807V452.807Z" fill="#F3AB98"/>
<path d="M165.467 472.944C166.258 472.582 167.102 472.342 167.971 472.231C168.773 472.123 169.585 472.091 170.394 472.135C171.993 472.199 173.593 472.238 175.193 472.27C178.392 472.341 181.591 472.366 184.791 472.379C191.236 472.379 197.568 472.43 204.04 472.244C210.513 472.058 216.932 471.968 223.371 471.994C226.59 471.994 229.809 472.077 233.022 472.148C234.64 472.169 236.255 472.27 237.861 472.45C239.513 472.624 241.143 472.953 242.727 473.431C241.18 474.014 239.574 474.444 237.935 474.715C236.339 474.99 234.728 475.175 233.109 475.267C229.883 475.491 226.657 475.684 223.437 475.793C216.985 476.024 210.54 475.998 204.107 476.082C200.888 476.082 197.675 476.223 194.416 476.146C191.156 476.069 187.93 476.062 184.697 475.947C181.464 475.831 178.218 475.575 174.992 475.254C173.372 475.081 171.766 474.888 170.153 474.676C169.338 474.581 168.537 474.4 167.763 474.137C166.933 473.868 166.156 473.464 165.467 472.944V472.944Z" fill="#F3AB98"/>
<path d="M163.138 495.718C163.932 495.27 164.795 494.945 165.695 494.755C166.534 494.568 167.391 494.463 168.252 494.441L173.359 494.235C176.766 494.12 180.179 494.024 183.586 493.972C190.4 493.876 197.213 493.876 204.014 493.876C210.814 493.876 217.641 493.767 224.455 493.876C227.862 493.934 231.269 494.069 234.676 494.216C236.384 494.271 238.089 494.413 239.782 494.64C241.526 494.869 243.243 495.258 244.91 495.801C243.249 496.334 241.539 496.715 239.803 496.937C238.107 497.169 236.4 497.313 234.689 497.367C231.282 497.515 227.875 497.649 224.468 497.707C217.655 497.835 210.834 497.746 204.021 497.707C197.207 497.669 190.393 497.669 183.579 497.547C180.172 497.482 176.759 497.367 173.352 497.232L168.245 496.995C167.384 496.97 166.527 496.862 165.688 496.674C164.79 496.488 163.93 496.165 163.138 495.718V495.718Z" fill="#F3AB98"/>
<path d="M323.02 467.791C323.16 443.977 322.21 422.827 317.846 406.579C311.106 390.305 298.984 380.602 277.639 380.602L292.893 466.925C292.893 466.925 307.966 473.496 323.02 467.791Z" fill="#F3AB98"/>
<path d="M328.782 461.014C328.019 461.619 327.188 462.142 326.306 462.574" stroke="#592D3D" stroke-width="12" stroke-miterlimit="10" stroke-linecap="square"/>
<path d="M87.6249 405.886C83.0534 422.294 82.2703 443.83 82.4443 468.131C95.7639 473.611 116.192 466.751 116.192 466.751L127.791 381.892C107.129 381.873 94.8134 390.793 87.6249 405.886Z" fill="#F3AB98"/>
<path d="M280.156 373.056H243.872V373.12C243.873 376.009 243.55 378.89 242.908 381.713C242.596 383.086 242.208 384.442 241.744 385.775C240.263 389.756 237.99 393.424 235.05 396.575C234.112 397.584 233.106 398.534 232.038 399.417C215.192 411.096 188.419 411.738 172.147 399.045C170.394 397.577 168.8 395.943 167.388 394.168C164.458 390.479 162.381 386.232 161.298 381.713C160.98 380.316 160.741 378.905 160.581 377.484C160.414 376.035 160.331 374.578 160.334 373.12V373.056H124.05C121.693 373.058 119.434 373.956 117.769 375.554C116.103 377.152 115.168 379.319 115.168 381.578V564.258C115.164 565.379 115.391 566.49 115.836 567.526C116.281 568.562 116.934 569.505 117.759 570.299C118.584 571.093 119.565 571.723 120.644 572.153C121.723 572.583 122.881 572.805 124.05 572.806H283.978C286.334 572.804 288.593 571.906 290.259 570.308C291.924 568.71 292.86 566.543 292.86 564.284V385.813C292.86 377.971 288.918 373.056 280.156 373.056Z" fill="#633749"/>
<path d="M277.639 373.056C320.168 373.056 326.768 408.992 327.102 458.512C314.653 465.969 294.366 459.353 294.366 459.353L277.639 373.056Z" fill="#633749"/>
<path d="M292.86 419.997L277.639 444.465L285.256 527.887H293.027V460.09L304.593 461.945C300.798 415.633 292.86 419.997 292.86 419.997Z" fill="#5E3244"/>
<path d="M127.791 373.056C86.4402 373.056 77.0362 407.58 76.3535 454.976C89.0707 467.72 115.174 457.915 115.174 457.915L127.791 373.056Z" fill="#633749"/>
<path d="M115.148 419.997V457.941L103.562 460.706C107.357 415.71 115.148 419.997 115.148 419.997Z" fill="#5E3244"/>
<path d="M277.639 373.056C322.759 373.056 330.148 409.178 330.449 458.903C312.913 466.88 294.366 459.353 294.366 459.353" stroke="#592D3D" stroke-width="12" stroke-miterlimit="10" stroke-linecap="square"/>
<path d="M127.791 373.056C83.087 373.056 74.1917 408.157 73.7366 456.94C87.5514 466.424 115.141 457.941 115.141 457.941" stroke="#592D3D" stroke-width="12" stroke-miterlimit="10" stroke-linecap="square"/>
<path d="M124.05 572.806H202.106C129.05 572.806 134.565 424.456 115.168 424.456V564.258C115.164 565.379 115.391 566.489 115.836 567.526C116.281 568.562 116.934 569.504 117.759 570.298C118.584 571.092 119.565 571.723 120.644 572.153C121.723 572.583 122.881 572.805 124.05 572.806V572.806Z" fill="#5E3244"/>
<path d="M111.152 438.593C111.025 436.238 111.078 433.883 111.185 431.535C111.292 429.186 111.5 426.818 111.761 424.476C111.895 423.295 112.029 422.121 112.196 420.94C112.363 419.759 112.524 418.585 112.765 417.404C113.24 414.96 114.048 412.587 115.168 410.345C116.289 412.586 117.095 414.96 117.564 417.404C117.812 418.585 117.986 419.759 118.14 420.94C118.294 422.121 118.441 423.295 118.575 424.476C118.829 426.831 119.03 429.186 119.144 431.535C119.257 433.883 119.311 436.245 119.184 438.593H111.152Z" fill="#592D3D"/>
<path d="M292.9 460.055V465.189C293.074 487.007 293.074 509.467 292.9 531.124C292.9 532.966 292.9 534.795 292.9 536.598V579.855C292.903 580.976 292.675 582.085 292.23 583.121C291.785 584.157 291.131 585.098 290.306 585.891C289.481 586.685 288.501 587.314 287.422 587.744C286.343 588.174 285.187 588.396 284.018 588.396H124.09C121.734 588.395 119.475 587.496 117.809 585.898C116.144 584.3 115.208 582.134 115.208 579.875V542.527C115.208 540.917 115.208 539.274 115.208 537.618C115.041 515.242 115.041 492.782 115.208 470.047V454.184" stroke="#592D3D" stroke-width="12" stroke-miterlimit="10"/>
<path d="M288.844 444.465C288.717 441.789 288.777 439.107 288.884 436.424C288.991 433.742 289.199 431.066 289.453 428.384C289.587 427.043 289.727 425.701 289.888 424.36C290.049 423.019 290.216 421.684 290.464 420.343C290.924 417.581 291.729 414.881 292.86 412.303C293.99 414.882 294.796 417.581 295.263 420.343C295.504 421.684 295.678 423.025 295.832 424.36C295.986 425.695 296.133 427.043 296.267 428.384C296.521 431.066 296.729 433.742 296.836 436.424C296.943 439.107 297.003 441.789 296.876 444.465H288.844Z" fill="#592D3D"/>
<path d="M124.05 373.121L280.156 373.056" stroke="#592D3D" stroke-width="12" stroke-miterlimit="10"/>
<path d="M243.872 373.12C243.873 376.009 243.55 378.89 242.908 381.713C242.597 383.086 242.208 384.442 241.744 385.775C240.263 389.756 237.99 393.424 235.05 396.575C234.112 397.584 233.106 398.534 232.038 399.417C215.192 411.096 188.419 411.738 172.147 399.045C170.394 397.577 168.8 395.943 167.388 394.168C164.458 390.479 162.381 386.232 161.298 381.713C160.98 380.316 160.741 378.905 160.581 377.484C160.414 376.035 160.332 374.578 160.334 373.12" stroke="#592D3D" stroke-width="12" stroke-miterlimit="10"/>
<path d="M206.289 417.763C202.24 418.544 198.098 418.782 193.981 418.469C189.826 418.189 185.729 417.378 181.799 416.057C177.845 414.757 174.121 412.887 170.755 410.512L169.51 409.607C169.102 409.299 168.707 408.966 168.312 408.632C167.517 407.983 166.772 407.28 166.083 406.527C164.709 405.047 163.502 403.432 162.482 401.708C163.914 403.085 165.42 404.389 166.993 405.616C167.382 405.924 167.777 406.226 168.165 406.514C168.553 406.803 168.988 407.041 169.396 407.31C169.805 407.58 170.213 407.849 170.635 408.099L171.913 408.844C175.328 410.783 178.938 412.387 182.689 413.631C186.448 414.891 190.31 415.846 194.235 416.486C198.227 417.113 202.251 417.539 206.289 417.763V417.763Z" fill="#592D3D"/>
<path d="M75.3899 458.903C76.151 459.569 76.9757 460.164 77.853 460.681" stroke="#592D3D" stroke-width="12" stroke-miterlimit="10" stroke-linecap="square"/>
<path d="M320.945 452.608C319.552 453.407 318.019 453.955 316.42 454.225C314.833 454.524 313.218 454.664 311.601 454.642C309.986 454.612 308.378 454.442 306.795 454.135C306.005 454.001 305.236 453.776 304.459 453.577C303.683 453.378 302.94 453.083 302.204 452.781C303.013 452.781 303.797 452.897 304.586 452.961L306.942 453.147C307.726 453.147 308.502 453.276 309.285 453.282C310.068 453.288 310.838 453.353 311.614 453.359C313.176 453.385 314.738 453.344 316.3 453.237C317.862 453.133 319.414 452.923 320.945 452.608V452.608Z" fill="#592D3D"/>
<path d="M215.928 442.296L206.29 458.3L196.651 442.296H164.524L206.263 511.6L248.002 442.296H215.928Z" stroke="white" stroke-width="16"/>
<path d="M215.928 442.296L206.29 458.3L196.651 442.296H164.524L206.263 511.6L248.002 442.296H215.928Z" fill="#44B783"/>
<path d="M215.928 442.296L206.29 458.3L196.651 442.296H181.257L206.303 483.885L231.349 442.296H215.928Z" fill="#364A5E"/>
<path d="M97.6313 257.113C105.379 257.113 111.66 251.091 111.66 243.663C111.66 236.234 105.379 230.212 97.6313 230.212C89.8833 230.212 83.6023 236.234 83.6023 243.663C83.6023 251.091 89.8833 257.113 97.6313 257.113Z" fill="#592D3D"/>
<path d="M97.5442 254.52C98.7423 254.456 100.081 254.353 101.359 254.225C102.638 254.097 103.943 253.943 105.235 253.75C106.527 253.558 107.825 253.333 109.124 253.108C110.422 252.884 111.747 252.672 113.14 252.576C112.046 253.382 110.852 254.055 109.585 254.578C108.325 255.083 107.033 255.511 105.717 255.861C104.398 256.23 103.057 256.521 101.701 256.734C100.322 256.965 98.9242 257.081 97.5242 257.081L97.5442 254.52Z" fill="#592D3D"/>
<path d="M312.291 257.113C320.039 257.113 326.32 251.091 326.32 243.663C326.32 236.234 320.039 230.212 312.291 230.212C304.543 230.212 298.261 236.234 298.261 243.663C298.261 251.091 304.543 257.113 312.291 257.113Z" fill="#592D3D"/>
<path d="M312.29 254.52C313.495 254.456 314.827 254.353 316.105 254.225C317.384 254.097 318.696 253.943 319.987 253.75C321.279 253.558 322.578 253.333 323.876 253.108C325.175 252.884 326.5 252.672 327.892 252.576C326.798 253.381 325.604 254.054 324.338 254.578C323.078 255.083 321.786 255.511 320.469 255.861C319.15 256.229 317.809 256.521 316.453 256.734C315.074 256.965 313.677 257.081 312.277 257.081L312.29 254.52Z" fill="#592D3D"/>
<path d="M165.956 285.232C165.956 273.104 242.072 274.926 242.072 285.232C242.072 294.909 238.062 304.19 230.925 311.033C223.788 317.875 214.107 321.72 204.014 321.72C193.92 321.72 184.24 317.875 177.103 311.033C169.966 304.19 165.956 294.909 165.956 285.232V285.232Z" fill="#592D3D"/>
<path d="M200.667 298.798C189.322 298.156 179.429 303.129 176.136 310.49C181.612 316.036 188.765 319.795 196.586 321.237C204.408 322.68 212.505 321.733 219.736 318.53C221.24 317.865 222.696 317.104 224.093 316.252C223.478 307.198 213.424 299.555 200.667 298.798Z" fill="#F28195"/>
<path d="M165.956 285.232C165.956 273.104 242.072 274.926 242.072 285.232C242.072 294.909 238.062 304.19 230.925 311.033C223.788 317.875 214.107 321.72 204.014 321.72C193.92 321.72 184.24 317.875 177.103 311.033C169.966 304.19 165.956 294.909 165.956 285.232V285.232Z" stroke="#592D3D" stroke-width="6" stroke-miterlimit="10"/>
<path d="M189.369 292.034C189.67 291.964 189.791 291.932 189.985 291.899L190.487 291.81C190.815 291.752 191.156 291.72 191.464 291.694C192.107 291.631 192.753 291.61 193.398 291.63C194.707 291.657 196.008 291.832 197.274 292.15C199.926 292.794 202.329 294.152 204.201 296.064C205.963 297.88 207.143 300.143 207.602 302.584C208.02 304.835 207.702 307.155 206.691 309.225C205.306 307.345 204.242 305.658 203.13 304.246C202.63 303.569 202.082 302.926 201.491 302.321C200.95 301.789 200.343 301.324 199.683 300.935C198.434 300.217 197.04 299.76 195.594 299.594C194.835 299.5 194.07 299.448 193.305 299.439C192.91 299.439 192.515 299.439 192.127 299.472L191.558 299.51H191.297C191.23 299.51 191.096 299.51 191.143 299.51L189.369 292.034Z" fill="#592D3D"/>
<path d="M243.323 142.44C234.716 157.841 203.164 166.465 200.6 162.602C197.729 158.284 225.934 127.103 209.904 94.4918" fill="#F3AB98"/>
<path d="M394.102 106.19C390.688 102.917 373.313 107.364 355.823 106.042C338.686 83.7293 316.416 65.5028 290.742 52.778C265.067 40.0532 236.679 33.1725 207.782 32.6699C206.149 19.5278 207.28 8.49049 206.035 6.93757C204.368 4.87128 195.667 15.0744 193.405 26.8304C185.433 17.2048 171.893 12.0712 171.505 14.7664C171.25 16.4861 176.484 23.808 181.417 33.9534C106.721 42.5971 45.491 93.1571 24.0727 160.369C14.7958 168.018 6.09463 173.422 6.00092 176.855C5.8202 183.22 32.312 182.861 43.8713 181.873V181.834C84.4658 180.551 163.68 172.992 202.113 135.06C198.418 147.311 191.611 156.339 192.923 158.264C194.931 161.261 218.572 154.934 226.436 143.351C258.564 155.922 319.8 171.047 373.018 132.981L372.871 132.705C382.569 124.934 398.352 110.297 394.102 106.19Z" fill="#592D3D"/>
<path d="M355.85 109.893C352.236 110.047 348.715 109.963 345.141 109.803C341.567 109.642 338.053 109.373 334.519 108.994C332.752 108.808 330.985 108.609 329.224 108.353C327.464 108.096 325.697 107.891 323.943 107.563C320.37 106.948 316.874 105.971 313.515 104.65C317.026 103.788 320.61 103.225 324.224 102.969C325.985 102.828 327.745 102.731 329.505 102.661L334.78 102.443C338.294 102.301 341.801 102.224 345.301 102.154C348.802 102.083 352.316 102.077 355.756 102.154L355.85 109.893Z" fill="#592D3D"/>
<path d="M27.7137 162.115C27.7137 162.115 27.7137 162.269 27.7137 162.365L27.6334 162.705L27.4459 163.417C27.3054 163.899 27.1581 164.393 27.0042 164.887C26.6896 165.881 26.3349 166.902 25.9734 167.935C25.612 168.968 25.264 170.04 24.7887 171.143C24.5227 171.72 24.2141 172.278 23.8651 172.812C23.4641 173.446 23.0001 174.041 22.4796 174.589C21.351 173.642 20.4938 172.434 19.9897 171.079C19.7602 170.475 19.5899 169.852 19.481 169.218C19.3404 168.577 19.2735 167.935 19.1932 167.325C19.059 166.045 19.059 164.755 19.1932 163.475C19.2585 162.828 19.3658 162.185 19.5145 161.55C19.5948 161.229 19.6818 160.908 19.7889 160.581C19.8401 160.413 19.9005 160.248 19.9696 160.087C20.0365 159.907 20.0901 159.779 20.2106 159.509L27.7137 162.115Z" fill="#592D3D"/>
<path d="M43.8713 181.892V181.854C55.2498 181.494 69.7273 180.634 85.4631 178.748C87.2234 142.864 100.188 100.729 129.585 51.4078L125.034 49.3222C101.025 60.0167 79.6305 75.431 62.2374 94.565C44.8443 113.699 31.8415 136.125 24.0727 160.388C14.7958 168.038 6.09463 173.441 6.00092 176.874C5.8202 183.24 32.312 182.88 43.8713 181.892Z" fill="#592D3D"/>
<path d="M394.102 106.19C390.688 102.917 373.313 107.364 355.823 106.042C338.686 83.7293 316.416 65.5028 290.742 52.778C265.067 40.0532 236.679 33.1725 207.782 32.6699C206.149 19.5278 207.28 8.49049 206.035 6.93757C204.368 4.87128 195.667 15.0744 193.405 26.8304C185.433 17.2048 171.893 12.0712 171.505 14.7664C171.25 16.4861 176.484 23.808 181.417 33.9534C106.721 42.5971 45.491 93.1571 24.0727 160.369C14.7958 168.018 6.09463 173.422 6.00092 176.855C5.8202 183.22 32.312 182.861 43.8713 181.873V181.834C84.4658 180.551 163.68 172.992 202.113 135.06C198.418 147.311 191.611 156.339 192.923 158.264C194.931 161.261 218.572 154.934 226.436 143.351C258.564 155.922 319.8 171.047 373.018 132.981L372.871 132.705C382.569 124.934 398.352 110.297 394.102 106.19Z" stroke="#592D3D" stroke-width="12" stroke-miterlimit="10"/>
<path d="M207.983 42.9565C198.449 43.483 188.955 44.5415 179.55 46.1265C177.221 46.5565 174.898 47.0313 172.562 47.442C170.226 47.8527 167.944 48.4752 165.635 48.9885L158.767 50.734C156.492 51.3757 154.236 52.0687 151.974 52.7361C142.949 55.5263 134.132 58.8987 125.582 62.8301C116.991 66.8282 108.665 71.3287 100.65 76.3059C107.789 70.0633 115.67 64.6485 124.13 60.1735C132.596 55.6411 141.511 51.9246 150.742 49.0784C153.071 48.4367 155.387 47.7372 157.716 47.1212C160.046 46.5051 162.402 45.9533 164.778 45.4527C167.154 44.9522 169.53 44.5544 171.913 44.1693C174.296 43.7843 176.699 43.4827 179.095 43.1939C188.683 42.063 198.375 41.9834 207.983 42.9565Z" fill="white"/>
<path d="M141.961 190.889H61.2134C57.492 190.889 53.7706 190.837 50.0491 190.889H49.8885C46.3879 190.889 43.0346 193.841 43.1952 197.306C43.2245 198.999 43.9391 200.615 45.188 201.812C46.437 203.01 48.1225 203.695 49.8885 203.723H130.636C134.35 203.723 138.079 203.774 141.8 203.723H141.961C145.461 203.723 148.815 200.771 148.654 197.306C148.623 195.613 147.908 193.998 146.659 192.801C145.411 191.604 143.726 190.918 141.961 190.889V190.889Z" fill="#592D3D"/>
<path d="M355.495 190.889H274.748C271.026 190.889 267.305 190.837 263.584 190.889H263.423C259.922 190.889 256.569 193.841 256.73 197.306C256.759 198.999 257.474 200.615 258.722 201.812C259.971 203.01 261.657 203.695 263.423 203.723H344.17C347.892 203.723 351.613 203.774 355.335 203.723H355.495C358.996 203.723 362.349 200.771 362.188 197.306C362.157 195.613 361.442 193.998 360.194 192.801C358.945 191.604 357.261 190.918 355.495 190.889V190.889Z" fill="#592D3D"/>
<path opacity="0.2" d="M96.1856 298.066C130.678 298.066 158.64 271.258 158.64 238.189C158.64 205.119 130.678 178.311 96.1856 178.311C61.6928 178.311 33.731 205.119 33.731 238.189C33.731 271.258 61.6928 298.066 96.1856 298.066Z" fill="white"/>
<path opacity="0.15" d="M369 272.622C360.843 283.945 349.164 292.574 335.589 297.306C322.014 302.038 307.22 302.638 293.268 299.022C279.317 295.406 266.903 287.754 257.756 277.133C248.609 266.512 243.185 253.451 242.24 239.769C217.336 230.453 192.143 230.536 165.381 240.018C164.139 256.654 156.3 272.227 143.438 283.606C130.576 294.986 113.647 301.327 96.0543 301.354C74.1927 301.354 44.9005 278.065 48.2659 283.24C57.6889 296.441 79.9004 306.497 97.0908 306.497C133.807 306.497 162.965 281.428 165.448 247.208C192.21 237.733 217.43 237.638 242.307 246.96C244.663 281.3 274.877 306.638 311.681 306.638C341.761 306.638 358.857 284.861 369 272.622Z" fill="black"/>
<path opacity="0.4" d="M83.5354 302.488L165.909 223.507C164.099 219.593 161.855 215.878 159.216 212.424L71.9695 296.077C75.574 298.605 79.4516 300.754 83.5354 302.488Z" fill="white"/>
<path d="M96.1856 298.066C130.678 298.066 158.64 271.258 158.64 238.189C158.64 205.119 130.678 178.311 96.1856 178.311C61.6928 178.311 33.731 205.119 33.731 238.189C33.731 271.258 61.6928 298.066 96.1856 298.066Z" stroke="#592D3D" stroke-width="10" stroke-miterlimit="10"/>
<path d="M159.015 238.189C189.269 226.439 218.993 225.996 248.129 238.189" stroke="#592D3D" stroke-width="10" stroke-miterlimit="10"/>
<path d="M79.9882 202.221C81.367 206.392 76.0124 209.601 71.9964 210.243C67.9805 210.243 65.3032 207.676 63.9646 204.467C63.2952 201.259 63.9646 198.05 66.6419 196.125C69.9885 194.842 74.6737 193.558 77.6522 196.85C78.396 197.55 78.9859 198.387 79.3871 199.309C79.7883 200.232 79.9927 201.222 79.9882 202.221Z" fill="white"/>
<path d="M87.1297 199.763C86.7214 202.542 82.7055 202.542 82.0361 199.975C82.0361 198.05 82.7054 197.408 84.613 197.344C84.9441 197.344 85.2719 197.407 85.5777 197.529C85.8834 197.65 86.1612 197.828 86.395 198.053C86.6287 198.278 86.814 198.545 86.94 198.838C87.0661 199.132 87.1306 199.446 87.1297 199.763V199.763Z" fill="white"/>
<path opacity="0.2" d="M310.577 298.066C345.07 298.066 373.032 271.258 373.032 238.189C373.032 205.119 345.07 178.311 310.577 178.311C276.084 178.311 248.122 205.119 248.122 238.189C248.122 271.258 276.084 298.066 310.577 298.066Z" fill="white"/>
<path opacity="0.4" d="M301.193 297.393L372.329 229.186C371.943 226.757 371.405 224.352 370.716 221.986L293.703 295.846C296.165 296.506 298.666 297.023 301.193 297.393V297.393Z" fill="white"/>
<path d="M310.577 298.066C345.069 298.066 373.031 271.258 373.031 238.189C373.031 205.119 345.069 178.311 310.577 178.311C276.084 178.311 248.122 205.119 248.122 238.189C248.122 271.258 276.084 298.066 310.577 298.066Z" stroke="#592D3D" stroke-width="10" stroke-miterlimit="10"/>
<path d="M294.372 202.221C295.751 206.392 290.397 209.601 286.381 210.243C282.365 210.243 279.687 207.676 278.349 204.467C277.68 201.259 278.349 198.05 281.026 196.125C284.373 194.842 289.058 193.558 292.037 196.85C292.779 197.551 293.368 198.388 293.769 199.31C294.17 200.232 294.375 201.222 294.372 202.221V202.221Z" fill="white"/>
<path d="M301.528 199.763C301.119 202.542 297.103 202.542 296.434 199.975C296.434 198.05 297.103 197.408 299.004 197.344C299.673 197.344 300.315 197.599 300.789 198.053C301.262 198.507 301.528 199.122 301.528 199.763Z" fill="white"/>
</svg>
