<svg width="401" height="377" viewBox="0 0 401 377" fill="none" xmlns="http://www.w3.org/2000/svg">
<path d="M25.4716 207.034C25.4716 112.498 105.409 35.8592 204.014 35.8592C302.619 35.8592 382.556 112.498 382.556 207.034C382.581 232.506 376.665 257.661 365.241 280.658C353.816 303.654 337.172 323.911 316.527 339.944C312.864 342.802 309.084 345.516 305.189 348.087C264.922 372.594 214.054 372.594 168.131 368.673C163.674 368.031 159.229 367.223 154.818 366.292C137.195 362.57 120.134 356.827 104.372 348.453C100.476 346.151 96.6988 343.666 93.0399 340.996C89.3622 338.312 85.8323 335.446 82.4645 332.41C79.2785 329.574 76.2019 326.626 73.2345 323.568C42.4839 291.931 25.4121 250.278 25.4716 207.034Z" fill="#FDD2B2"/>
<path d="M49.8083 293.331C50.2768 294.101 50.7386 294.871 51.2205 295.628C51.5083 296.09 51.8095 296.539 52.1107 297.001C52.5525 297.688 52.9942 298.374 53.4494 299.048C53.7707 299.536 54.1187 300.011 54.4266 300.486C54.8684 301.127 55.3101 301.769 55.7653 302.411C56.1066 302.898 56.4346 303.386 56.8094 303.874C57.2512 304.515 57.6929 305.106 58.148 305.722C58.5095 306.216 58.8843 306.704 59.2524 307.198C59.6206 307.692 60.1493 308.385 60.5911 308.975C61.0328 309.566 61.3608 309.957 61.749 310.445C62.1372 310.933 62.666 311.6 63.1345 312.177C63.603 312.755 63.931 313.146 64.3326 313.628C64.7342 314.109 65.2763 314.757 65.7516 315.315C66.2268 315.874 66.5748 316.272 66.9898 316.746C67.4048 317.221 67.9537 317.85 68.4423 318.396C68.9309 318.941 69.2923 319.339 69.7206 319.807L71.2065 321.412C71.6416 321.88 72.0834 322.336 72.5452 322.798C73.1208 323.401 73.7031 323.998 74.2854 324.588L75.0953 325.409C75.9588 326.269 76.8289 327.129 77.7124 327.976L77.8864 328.149C78.7498 328.971 79.6267 329.786 80.5035 330.594L81.561 331.557C82.1969 332.128 82.8327 332.699 83.4753 333.264L84.2517 333.944C84.921 334.547 85.6506 335.138 86.3534 335.728C88.5398 337.555 90.7709 339.307 93.0466 340.984C96.7011 343.653 100.478 346.139 104.378 348.44C120.141 356.782 137.175 362.558 154.825 366.28C159.236 367.21 163.68 368.012 168.138 368.66C196.317 371.067 226.369 371.984 254.668 366.684C209.67 353.985 -6.42836 279.38 129.585 51.4078C127.764 52.2099 125.971 53.0377 124.19 53.8976L123.795 54.0837C122.979 54.4751 122.162 54.8794 121.352 55.2901L120.683 55.6302C118.166 56.9136 115.676 58.2419 113.233 59.628L112.631 59.9681C111.855 60.4109 111.085 60.8601 110.315 61.3157L109.733 61.6622C107.341 63.0954 104.987 64.5777 102.671 66.1092L101.949 66.5905C101.219 67.0782 100.503 67.5659 99.7867 68.06L99.3449 68.3616C97.8858 69.3841 96.4445 70.4193 95.0211 71.4675L94.6061 71.7755C93.9368 72.276 93.2675 72.7894 92.5982 73.3092L91.815 73.9124C91.1457 74.4321 90.4764 74.9519 89.8071 75.4845C88.3948 76.6075 87.0026 77.7626 85.6305 78.9305L84.8675 79.5722L83.067 81.1444L82.1969 81.9016C80.2871 83.6128 78.4196 85.3604 76.5946 87.1443L75.6709 88.0491C75.1422 88.5753 74.6134 89.1015 74.0914 89.6341C73.7835 89.9486 73.4756 90.2758 73.1744 90.5839C72.2552 91.525 71.3493 92.479 70.4569 93.4459C70.1557 93.7731 69.8478 94.0876 69.5466 94.4341C69.0714 94.9539 68.6029 95.4801 68.1344 96.0063L67.1237 97.1549C66.6685 97.6747 66.2134 98.1945 65.785 98.7207C65.4236 99.1442 65.0622 99.5741 64.7074 100.004C63.9912 100.858 63.2884 101.711 62.5924 102.571C62.2309 103.02 61.8695 103.469 61.5147 103.925C61.16 104.381 60.7116 104.945 60.3167 105.465C59.9217 105.985 59.6005 106.395 59.2524 106.864C58.9044 107.332 58.4961 107.859 58.128 108.359C57.4943 109.215 56.8696 110.081 56.2538 110.958C55.9192 111.426 55.5845 111.908 55.2566 112.383C54.9286 112.857 54.5203 113.448 54.1589 113.987L53.1616 115.469L52.0371 117.208C51.7493 117.651 51.4615 118.094 51.1804 118.537C50.5847 119.473 50.0091 120.417 49.4334 121.36L48.6169 122.746C48.2554 123.356 47.894 123.972 47.5393 124.588C47.2715 125.056 47.0038 125.525 46.7428 125.993C46.3144 126.757 45.8927 127.527 45.471 128.297L44.6679 129.798C44.2395 130.62 43.8111 131.435 43.3894 132.263C43.1686 132.705 42.941 133.155 42.7201 133.604C42.3721 134.303 42.0508 135.009 41.696 135.715C41.4886 136.138 41.2878 136.562 41.087 136.998C40.5917 138.055 40.1075 139.125 39.6345 140.207C39.4873 140.541 39.3467 140.881 39.1995 141.214C38.8447 142.029 38.4967 142.844 38.1553 143.666C37.9746 144.096 37.8006 144.526 37.6266 144.949C37.2919 145.758 36.9572 146.573 36.656 147.388C36.5155 147.741 36.3749 148.093 36.2411 148.446C35.8216 149.572 35.4089 150.697 35.0028 151.822L34.628 152.913C34.3335 153.768 34.0457 154.624 33.7646 155.479L33.363 156.705C33.0484 157.693 32.7405 158.682 32.446 159.676C32.3791 159.888 32.3121 160.1 32.2519 160.318C31.9038 161.499 31.5692 162.684 31.2479 163.873C31.1408 164.252 31.0471 164.637 30.9467 165.015C30.7124 165.907 30.4849 166.799 30.2774 167.698L29.9963 168.821C29.7085 170.04 29.4273 171.259 29.1663 172.485L29.0659 172.979C28.8383 174.07 28.6152 175.161 28.3966 176.251C28.323 176.643 28.256 177.028 28.1824 177.419C28.0084 178.376 27.841 179.345 27.6871 180.307C27.6336 180.634 27.5733 180.949 27.5265 181.282C27.3257 182.534 27.145 183.792 26.9709 185.056L26.8705 185.89C26.7367 186.91 26.6162 187.937 26.5024 188.964C26.4622 189.349 26.4154 189.734 26.3752 190.125C26.2681 191.203 26.1677 192.288 26.074 193.372C26.074 193.597 26.0339 193.815 26.0205 194.014C25.9223 195.297 25.8353 196.591 25.7594 197.896C25.7594 198.236 25.7594 198.583 25.7126 198.923C25.668 199.933 25.6278 200.94 25.5921 201.945C25.5921 202.324 25.5921 202.703 25.5921 203.081C25.5921 204.397 25.5386 205.719 25.5386 207.04C25.5386 207.04 25.5386 207.085 25.5386 207.105C25.5386 208.529 25.5386 209.941 25.5921 211.353C25.5921 211.84 25.6323 212.328 25.6457 212.816C25.6791 213.759 25.7126 214.702 25.7594 215.646C25.7594 216.217 25.8331 216.782 25.8665 217.353C25.9201 218.206 25.9669 219.06 26.0339 219.92C26.0807 220.561 26.141 221.132 26.1945 221.736C26.2681 222.544 26.3351 223.353 26.4221 224.155C26.4823 224.796 26.5626 225.4 26.6296 226.022C26.7233 226.799 26.8103 227.581 26.9107 228.358C26.991 229 27.0847 229.641 27.1717 230.251C27.2788 231.008 27.3859 231.772 27.5064 232.529C27.6068 233.171 27.7139 233.812 27.821 234.454C27.9414 235.199 28.0686 235.949 28.2025 236.694C28.323 237.335 28.4434 237.977 28.5706 238.619C28.7112 239.357 28.8584 240.095 29.0057 240.826C29.1529 241.558 29.2801 242.11 29.4206 242.751C29.5813 243.483 29.7419 244.208 29.9159 244.933C30.09 245.658 30.2105 246.217 30.3711 246.813C30.5451 247.538 30.7325 248.257 30.9199 248.969C31.1073 249.682 31.2479 250.221 31.4152 250.837C31.616 251.556 31.8168 252.268 32.0243 252.98C32.1983 253.622 32.3791 254.212 32.5665 254.822C32.7807 255.534 33.0015 256.24 33.2358 256.946C33.4701 257.652 33.624 258.159 33.8248 258.768C34.0256 259.378 34.2933 260.174 34.5343 260.873C34.7752 261.573 34.9493 262.073 35.1634 262.67C35.4178 263.369 35.6721 264.069 35.9332 264.768C36.1541 265.352 36.3682 265.943 36.6025 266.527L37.4325 268.625C37.6667 269.196 37.8943 269.774 38.1018 270.345C38.3963 271.044 38.6975 271.75 38.9987 272.449C39.2396 273.001 39.4739 273.56 39.7215 274.112C40.0361 274.83 40.3909 275.536 40.6921 276.248C40.9397 276.775 41.1807 277.307 41.4283 277.833C41.7764 278.578 42.1445 279.309 42.4992 280.041L43.2221 281.517C43.6304 282.325 44.0521 283.121 44.4738 283.923C44.6879 284.327 44.8887 284.738 45.1096 285.142C46.3947 287.542 47.7334 289.91 49.1256 292.246C49.3197 292.548 49.5673 292.939 49.8083 293.331Z" fill="#F3AB98"/>
<path d="M25.4716 207.034C25.4716 112.498 105.409 35.8592 204.014 35.8592C302.619 35.8592 382.556 112.498 382.556 207.034C382.581 232.506 376.665 257.661 365.241 280.658C353.816 303.654 337.172 323.911 316.527 339.944C312.864 342.802 309.084 345.516 305.189 348.087C264.922 372.594 214.054 372.594 168.131 368.673C163.674 368.031 159.229 367.223 154.818 366.292C137.195 362.57 120.134 356.827 104.372 348.453C100.476 346.151 96.6988 343.666 93.0399 340.996C89.3622 338.312 85.8323 335.446 82.4645 332.41C79.2785 329.574 76.2019 326.626 73.2345 323.568C42.4839 291.931 25.4121 250.278 25.4716 207.034V207.034Z" stroke="#592D3D" stroke-width="12" stroke-miterlimit="10"/>
<path d="M165.956 285.232C165.956 273.104 242.072 274.926 242.072 285.232C242.072 294.909 238.062 304.19 230.925 311.033C223.788 317.875 214.107 321.72 204.014 321.72C193.92 321.72 184.24 317.875 177.103 311.033C169.966 304.19 165.956 294.909 165.956 285.232Z" fill="#592D3D"/>
<path d="M200.667 298.798C189.322 298.156 179.429 303.129 176.136 310.49C181.612 316.036 188.765 319.795 196.586 321.237C204.408 322.68 212.505 321.733 219.736 318.53C221.24 317.865 222.696 317.104 224.093 316.252C223.478 307.198 213.424 299.555 200.667 298.798Z" fill="#F28195"/>
<path d="M165.956 285.232C165.956 273.104 242.072 274.926 242.072 285.232C242.072 294.909 238.062 304.19 230.925 311.033C223.788 317.875 214.107 321.72 204.014 321.72C193.92 321.72 184.24 317.875 177.103 311.033C169.966 304.19 165.956 294.909 165.956 285.232V285.232Z" stroke="#592D3D" stroke-width="6" stroke-miterlimit="10"/>
<path d="M189.369 292.034C189.67 291.964 189.791 291.932 189.985 291.899L190.487 291.81C190.815 291.752 191.156 291.72 191.464 291.694C192.107 291.631 192.753 291.61 193.398 291.63C194.707 291.657 196.008 291.832 197.274 292.15C199.926 292.794 202.329 294.152 204.201 296.064C205.963 297.88 207.143 300.143 207.602 302.584C208.02 304.835 207.702 307.155 206.691 309.225C205.306 307.345 204.242 305.658 203.13 304.246C202.63 303.569 202.082 302.926 201.491 302.321C200.95 301.789 200.343 301.324 199.683 300.935C198.434 300.217 197.04 299.76 195.594 299.594C194.835 299.5 194.07 299.448 193.305 299.439C192.91 299.439 192.515 299.439 192.127 299.472L191.558 299.51H191.297C191.23 299.51 191.096 299.51 191.143 299.51L189.369 292.034Z" fill="#592D3D"/>
<path d="M243.323 142.44C234.716 157.841 203.164 166.465 200.6 162.602C197.729 158.284 225.934 127.103 209.904 94.4918" fill="#F3AB98"/>
<path d="M394.102 106.19C390.688 102.917 373.313 107.364 355.823 106.042C338.686 83.7293 316.416 65.5028 290.742 52.778C265.067 40.0532 236.679 33.1725 207.782 32.6699C206.149 19.5278 207.28 8.49049 206.035 6.93757C204.368 4.87128 195.667 15.0744 193.405 26.8304C185.433 17.2048 171.893 12.0712 171.505 14.7664C171.25 16.4861 176.484 23.808 181.417 33.9534C106.721 42.5971 45.491 93.1571 24.0727 160.369C14.7958 168.018 6.09463 173.422 6.00092 176.855C5.8202 183.22 32.312 182.861 43.8713 181.873V181.834C84.4658 180.551 163.68 172.992 202.113 135.06C198.418 147.311 191.611 156.339 192.923 158.264C194.931 161.261 218.572 154.934 226.436 143.351C258.564 155.922 319.8 171.047 373.018 132.981L372.871 132.705C382.569 124.934 398.352 110.297 394.102 106.19Z" fill="#592D3D"/>
<path d="M355.85 109.893C352.236 110.047 348.715 109.963 345.141 109.803C341.567 109.642 338.053 109.373 334.519 108.994C332.752 108.808 330.985 108.609 329.224 108.353C327.464 108.096 325.697 107.891 323.943 107.563C320.37 106.948 316.874 105.971 313.515 104.65C317.026 103.788 320.61 103.225 324.224 102.969C325.985 102.828 327.745 102.731 329.505 102.661L334.78 102.443C338.294 102.301 341.801 102.224 345.301 102.154C348.802 102.083 352.316 102.077 355.756 102.154L355.85 109.893Z" fill="#592D3D"/>
<path d="M27.7137 162.115C27.7137 162.115 27.7137 162.269 27.7137 162.365L27.6334 162.705L27.4459 163.417C27.3054 163.899 27.1581 164.393 27.0042 164.887C26.6896 165.881 26.3349 166.902 25.9734 167.935C25.612 168.968 25.264 170.04 24.7887 171.143C24.5227 171.72 24.2141 172.278 23.8651 172.812C23.4641 173.446 23.0001 174.041 22.4796 174.589C21.351 173.642 20.4938 172.434 19.9897 171.079C19.7602 170.475 19.5899 169.852 19.481 169.218C19.3404 168.577 19.2735 167.935 19.1932 167.325C19.059 166.045 19.059 164.755 19.1932 163.475C19.2585 162.828 19.3658 162.185 19.5145 161.55C19.5948 161.229 19.6818 160.908 19.7889 160.581C19.8401 160.413 19.9005 160.248 19.9696 160.087C20.0365 159.907 20.0901 159.779 20.2106 159.509L27.7137 162.115Z" fill="#592D3D"/>
<path d="M43.8713 181.892V181.854C55.2498 181.494 69.7273 180.634 85.4631 178.748C87.2234 142.864 100.188 100.729 129.585 51.4078L125.034 49.3222C101.025 60.0167 79.6305 75.431 62.2374 94.565C44.8443 113.699 31.8415 136.125 24.0727 160.388C14.7958 168.038 6.09463 173.441 6.00092 176.874C5.8202 183.24 32.312 182.88 43.8713 181.892Z" fill="#592D3D"/>
<path d="M394.102 106.19C390.688 102.917 373.313 107.364 355.823 106.042C338.686 83.7293 316.416 65.5028 290.742 52.778C265.067 40.0532 236.679 33.1725 207.782 32.6699C206.149 19.5278 207.28 8.49049 206.035 6.93757C204.368 4.87128 195.667 15.0744 193.405 26.8304C185.433 17.2048 171.893 12.0712 171.505 14.7664C171.25 16.4861 176.484 23.808 181.417 33.9534C106.721 42.5971 45.491 93.1571 24.0727 160.369C14.7958 168.018 6.09463 173.422 6.00092 176.855C5.8202 183.22 32.312 182.861 43.8713 181.873V181.834C84.4658 180.551 163.68 172.992 202.113 135.06C198.418 147.311 191.611 156.339 192.923 158.264C194.931 161.261 218.572 154.934 226.436 143.351C258.564 155.922 319.8 171.047 373.018 132.981L372.871 132.705C382.569 124.934 398.352 110.297 394.102 106.19Z" stroke="#592D3D" stroke-width="12" stroke-miterlimit="10"/>
<path d="M207.983 42.9565C198.449 43.483 188.955 44.5415 179.55 46.1265C177.221 46.5565 174.898 47.0313 172.562 47.442C170.226 47.8527 167.944 48.4752 165.635 48.9885L158.767 50.734C156.492 51.3757 154.236 52.0687 151.974 52.7361C142.949 55.5263 134.132 58.8987 125.582 62.8301C116.991 66.8282 108.665 71.3287 100.65 76.3059C107.789 70.0633 115.67 64.6485 124.13 60.1735C132.596 55.6411 141.511 51.9246 150.742 49.0784C153.071 48.4367 155.387 47.7372 157.716 47.1212C160.046 46.5051 162.402 45.9533 164.778 45.4527C167.154 44.9522 169.53 44.5544 171.913 44.1693C174.296 43.7843 176.699 43.4827 179.095 43.1939C188.683 42.063 198.375 41.9834 207.983 42.9565Z" fill="white"/>
<path d="M141.961 190.889H61.2134C57.492 190.889 53.7706 190.837 50.0491 190.889H49.8885C46.3879 190.889 43.0346 193.841 43.1952 197.306C43.2245 198.999 43.9391 200.615 45.188 201.812C46.437 203.01 48.1225 203.695 49.8885 203.723H130.636C134.35 203.723 138.079 203.774 141.8 203.723H141.961C145.461 203.723 148.815 200.771 148.654 197.306C148.623 195.613 147.908 193.998 146.659 192.801C145.411 191.604 143.726 190.918 141.961 190.889Z" fill="#592D3D"/>
<path d="M355.495 190.889H274.748C271.026 190.889 267.305 190.837 263.584 190.889H263.423C259.922 190.889 256.569 193.841 256.73 197.306C256.759 198.999 257.474 200.615 258.722 201.812C259.971 203.01 261.657 203.695 263.423 203.723H344.17C347.892 203.723 351.613 203.774 355.335 203.723H355.495C358.996 203.723 362.349 200.771 362.188 197.306C362.157 195.613 361.442 193.998 360.194 192.801C358.945 191.604 357.261 190.918 355.495 190.889Z" fill="#592D3D"/>
<path opacity="0.2" d="M96.1856 298.066C130.678 298.066 158.64 271.258 158.64 238.189C158.64 205.119 130.678 178.311 96.1856 178.311C61.6928 178.311 33.731 205.119 33.731 238.189C33.731 271.258 61.6928 298.066 96.1856 298.066Z" fill="white"/>
<path opacity="0.15" d="M369 272.622C360.843 283.945 349.164 292.574 335.589 297.306C322.014 302.038 307.22 302.638 293.268 299.022C279.317 295.406 266.903 287.754 257.756 277.133C248.609 266.512 243.185 253.451 242.24 239.769C217.336 230.453 192.143 230.536 165.381 240.018C164.139 256.654 156.3 272.227 143.438 283.606C130.576 294.986 113.647 301.327 96.0543 301.354C74.1927 301.354 44.9005 278.065 48.2659 283.24C57.6889 296.441 79.9004 306.497 97.0908 306.497C133.807 306.497 162.965 281.428 165.448 247.208C192.21 237.733 217.43 237.638 242.307 246.96C244.663 281.3 274.877 306.638 311.681 306.638C341.761 306.638 358.857 284.861 369 272.622Z" fill="black"/>
<path opacity="0.4" d="M83.5354 302.488L165.909 223.507C164.099 219.593 161.855 215.878 159.216 212.424L71.9695 296.077C75.574 298.605 79.4516 300.754 83.5354 302.488Z" fill="white"/>
<path d="M96.1856 298.066C130.678 298.066 158.64 271.258 158.64 238.189C158.64 205.119 130.678 178.311 96.1856 178.311C61.6928 178.311 33.731 205.119 33.731 238.189C33.731 271.258 61.6928 298.066 96.1856 298.066Z" stroke="#592D3D" stroke-width="10" stroke-miterlimit="10"/>
<path d="M159.015 238.189C189.269 226.439 218.993 225.996 248.129 238.189" stroke="#592D3D" stroke-width="10" stroke-miterlimit="10"/>
<path d="M79.9882 202.221C81.367 206.392 76.0124 209.601 71.9964 210.243C67.9805 210.243 65.3032 207.676 63.9646 204.467C63.2952 201.259 63.9646 198.05 66.6419 196.125C69.9885 194.842 74.6737 193.558 77.6522 196.85C78.396 197.55 78.9859 198.387 79.3871 199.309C79.7883 200.232 79.9927 201.222 79.9882 202.221Z" fill="white"/>
<path d="M87.1297 199.763C86.7214 202.542 82.7055 202.542 82.0361 199.975C82.0361 198.05 82.7054 197.408 84.613 197.344C84.9441 197.344 85.2719 197.407 85.5777 197.529C85.8834 197.65 86.1612 197.828 86.395 198.053C86.6287 198.278 86.814 198.545 86.94 198.838C87.0661 199.132 87.1306 199.446 87.1297 199.763Z" fill="white"/>
<path opacity="0.2" d="M310.577 298.066C345.07 298.066 373.032 271.258 373.032 238.189C373.032 205.119 345.07 178.311 310.577 178.311C276.084 178.311 248.122 205.119 248.122 238.189C248.122 271.258 276.084 298.066 310.577 298.066Z" fill="white"/>
<path opacity="0.4" d="M301.193 297.393L372.329 229.186C371.943 226.757 371.405 224.352 370.716 221.986L293.703 295.846C296.165 296.506 298.666 297.023 301.193 297.393Z" fill="white"/>
<path d="M310.577 298.066C345.069 298.066 373.031 271.258 373.031 238.189C373.031 205.119 345.069 178.311 310.577 178.311C276.084 178.311 248.122 205.119 248.122 238.189C248.122 271.258 276.084 298.066 310.577 298.066Z" stroke="#592D3D" stroke-width="10" stroke-miterlimit="10"/>
<path d="M294.372 202.221C295.751 206.392 290.397 209.601 286.381 210.243C282.365 210.243 279.687 207.676 278.349 204.467C277.68 201.259 278.349 198.05 281.026 196.125C284.373 194.842 289.058 193.558 292.037 196.85C292.779 197.551 293.368 198.388 293.769 199.31C294.17 200.232 294.375 201.222 294.372 202.221Z" fill="white"/>
<path d="M301.528 199.763C301.119 202.542 297.103 202.542 296.434 199.975C296.434 198.05 297.103 197.408 299.004 197.344C299.673 197.344 300.315 197.599 300.789 198.053C301.262 198.507 301.528 199.122 301.528 199.763Z" fill="white"/>
</svg>
