<svg width="245" height="28" viewBox="0 0 245 28" fill="none" xmlns="http://www.w3.org/2000/svg">
<path d="M14.6313 27.1127C22.3793 27.1127 28.6603 21.0909 28.6603 13.6626C28.6603 6.23425 22.3793 0.212402 14.6313 0.212402C6.8833 0.212402 0.602295 6.23425 0.602295 13.6626C0.602295 21.0909 6.8833 27.1127 14.6313 27.1127Z" fill="#592D3D"/>
<path d="M14.5442 24.5201C15.7423 24.456 17.081 24.3533 18.3594 24.2249C19.6378 24.0966 20.943 23.9426 22.2348 23.7501C23.5266 23.5576 24.8251 23.333 26.1236 23.1084C27.4221 22.8838 28.7473 22.672 30.1395 22.5757C29.0464 23.3824 27.8525 24.0551 26.5854 24.5779C25.3251 25.0827 24.033 25.5114 22.7167 25.8613C21.3978 26.23 20.0566 26.5215 18.7008 26.734C17.3217 26.9652 15.9242 27.0811 14.5242 27.0805L14.5442 24.5201Z" fill="#592D3D"/>
<path d="M229.291 27.1127C237.039 27.1127 243.32 21.0909 243.32 13.6626C243.32 6.23425 237.039 0.212402 229.291 0.212402C221.543 0.212402 215.261 6.23425 215.261 13.6626C215.261 21.0909 221.543 27.1127 229.291 27.1127Z" fill="#592D3D"/>
<path d="M229.29 24.5201C230.495 24.456 231.827 24.3533 233.105 24.2249C234.384 24.0966 235.696 23.9426 236.987 23.7501C238.279 23.5576 239.578 23.333 240.876 23.1084C242.175 22.8838 243.5 22.672 244.892 22.5757C243.798 23.381 242.604 24.0535 241.338 24.5779C240.078 25.0827 238.786 25.5114 237.469 25.8613C236.15 26.2293 234.809 26.5208 233.453 26.734C232.074 26.9649 230.677 27.0809 229.277 27.0805L229.29 24.5201Z" fill="#592D3D"/>
</svg>
